<?xml version="1.0" encoding="UTF-8" standalone="no"?>
<svg
   xmlns:dc="http://purl.org/dc/elements/1.1/"
   xmlns:cc="http://creativecommons.org/ns#"
   xmlns:rdf="http://www.w3.org/1999/02/22-rdf-syntax-ns#"
   xmlns:svg="http://www.w3.org/2000/svg"
   xmlns="http://www.w3.org/2000/svg"
   xmlns:sodipodi="http://sodipodi.sourceforge.net/DTD/sodipodi-0.dtd"
   xmlns:inkscape="http://www.inkscape.org/namespaces/inkscape"
   version="1.0"
   width="512.000000pt"
   height="512.000000pt"
   viewBox="-1 -15 175.000000 156.000000"
   preserveAspectRatio="xMidYMid meet"
   id="svg3338"
   inkscape:version="0.91 r13725"
   sodipodi:docname="icon-xmpp.svg">
  <metadata
     id="metadata3356">
    <rdf:RDF>
      <cc:Work
         rdf:about="">
        <dc:format>image/svg+xml</dc:format>
        <dc:type
           rdf:resource="http://purl.org/dc/dcmitype/StillImage" />
      </cc:Work>
    </rdf:RDF>
  </metadata>
  <defs
     id="defs3354" />
  <sodipodi:namedview
     pagecolor="#ffffff"
     bordercolor="#666666"
     borderopacity="1"
     objecttolerance="10"
     gridtolerance="10"
     guidetolerance="10"
     inkscape:pageopacity="0"
     inkscape:pageshadow="2"
     inkscape:window-width="1082"
     inkscape:window-height="1410"
     id="namedview3352"
     showgrid="false"
     inkscape:zoom="0.36875"
     inkscape:cx="-154.57627"
     inkscape:cy="320"
     inkscape:window-x="0"
     inkscape:window-y="0"
     inkscape:window-maximized="0"
     inkscape:current-layer="svg3338" />
  <path
     d="m136.29 14.189c0.077 1.313-1.786 0.968-1.786 2.293 0 38.551-44.72 96.831-89.847 108.19v1.182c59.957-5.51 126.73-66.8 128.24-125.85l-36.6 14.189z"
     fill="#000000"
     id="path3340" />
  <path
     d="m120.23 17.96c0.077 1.313 0.121 2.633 0.121 3.958 0 38.551-30.7 90.497-75.827 101.86v1.637c59.065-3.823 105.81-63.023 105.81-109.2 0-2.375-0.125-4.729-0.371-7.056l-29.73 8.796z"
     fill="#000000"
     id="path3342" />
  <path
     d="m36.599 14.189c-0.077 1.313 1.787 0.968 1.787 2.293 0 38.551 46.558 97.366 91.688 108.73v1.639c-59.953-5.52-128.56-67.8-130.07-126.85l36.599 14.189z"
     fill="#000000"
     id="path3344" />
  <path
     d="m54.731 18.932c-0.076 1.313-0.12 2.63-0.12 3.957 0 38.551 30.699 90.497 75.827 101.86v1.639c-59.044-2.79-105.81-63.024-105.81-109.2 0-2.375 0.128-4.729 0.371-7.056l29.73 8.798z"
     fill="#000000"
     id="path3346" />
  <path
     d="m24.713 9.583l7.617 2.722c-0.041 0.962-0.066 2.254-0.066 3.225 0 41.219 37.271 98.204 87.272 107.12 3.245 1.088 7.538 2.077 10.932 2.931v1.638c-65.254-5.56-111.1-71.866-105.76-117.64z"
     fill="#000000"
     id="path3348" />
  <path
     d="m150.34 8.76l-7.833 2.625c0.041 0.963 0.191 2.203 0.191 3.173 0 41.219-37.272 98.205-87.274 107.12-3.243 1.089-7.538 2.077-10.93 2.932v1.639c68.344-8.66 111.18-71.719 105.84-117.49z"
     fill="#000000"
     id="path3350" />
  <path
     style="fill:#828282;fill-opacity:1"
     d="m 434.61077,546.67957 c -30.3344,-6.54273 -60.4236,-16.7049 -88.81665,-29.99653 -12.51157,-5.85703 -24.29611,-10.64914 -26.18791,-10.64914 -1.89177,0 -11.18047,3.46563 -20.64155,7.70142 -33.97437,15.21055 -107.6282,35.68841 -128.3624,35.68841 -9.99138,0 -1.5535,-6.11566 17.10855,-12.40003 24.57361,-8.27506 52.48731,-22.22839 76.77,-38.37527 10.2508,-6.81635 18.63783,-12.7361 18.63783,-13.15503 0,-0.41896 -7.62711,-5.38813 -16.94915,-11.04263 C 214.97949,443.4003 144.41973,381.10359 106.89726,333.83051 56.271989,270.04969 22.830038,202.09337 10.359771,137.65975 5.9630381,114.94191 5.3191436,93.830508 9.0229866,93.830508 c 1.3829814,0 21.0312014,7.256352 43.6627134,16.125222 38.049693,14.91098 96.67015,34.67109 133.07869,44.85891 l 15.18811,4.24994 1.64105,26.36602 c 5.57922,89.63828 45.16685,181.12335 110.56859,255.51855 l 8.34411,9.49153 14.96724,-16.27119 c 18.61915,-20.24125 49.19249,-65.58972 63.78012,-94.60312 25.47629,-50.66977 38.54463,-95.43602 43.67591,-149.61397 l 3.25692,-34.38777 17.62712,-5.22252 c 50.57299,-14.98365 91.73557,-28.59941 123.38983,-40.81491 19.38983,-7.4826 37.81106,-14.583554 40.93605,-15.77989 5.39792,-2.066461 5.62251,-1.475036 4.49473,11.83538 -6.46579,76.31132 -42.11835,156.66117 -103.18324,232.54321 -35.9449,44.66675 -108.25462,107.98941 -153.59466,134.50502 -9.73584,5.69366 -17.72491,10.99471 -17.75346,11.78006 -0.0285,0.78539 11.23617,8.99073 25.03278,18.23412 26.18788,17.54525 57.17264,32.96995 77.9661,38.8128 6.71187,1.88602 13.99032,5.06004 16.17435,7.05339 3.3683,3.07428 2.13367,3.59366 -8.13559,3.42232 -6.65861,-0.11118 -22.64697,-2.47541 -35.52968,-5.25404 z"
     id="path3358"
     inkscape:connector-curvature="0"
     transform="matrix(0.2734375,0,0,0.2734375,-1,-24.5)" />
</svg>
